# xmcd
#
# Track frame offsets:
#	150
#	14011
#	27143
#	45413
#	60272
#	76211
#	92309
#	101975
#	119775
#	131770
#	145524
#	160182
#	173886
#	187072
#	203299
#	217855
#	233698
#	252431
#	267797
#	282580
#
# Disc length: 3984
#
# Revision: 3
# Processed by: cddbd v1.5.1PL0 Copyright (c) Steve Scherf et al.
# Submitted via: OrangeCD 5.2
# Normalized: r2:DSETVAR1
#
DISCID=0f0f8e14
DTITLE=Various Artist - Classic Country The '80s
DYEAR=1900
DGENRE=Country
TTITLE0=Merle Haggard - That's the Way Love Goes
TTITLE1=Conway Twitty - Slow Hand
TTITLE2=Don Williams - I Believe In You
TTITLE3=George Jones - He Stopped Loving Her Today
TTITLE4=Willie Nelson - Always On My Mind
TTITLE5=Randy Travis - Forever and Ever, Amen
TTITLE6=Waylon Jennings - Theme From The Dukes of Hazzard (Good Ol' Boys)
TTITLE7=Hank Williams Jr - All My Rowdy Friends (Have Settled Down)
TTITLE8=Oak Ridge Boys - Elvira
TTITLE9=John Anderson - Swingin'
TTITLE10=Eddie Rabbit - Drivin' My Life Away
TTITLE11=Rickie Skaggs - Crying My Heart Out Over You
TTITLE12=Larry Gatlin and the Gatlin Brothers - Houston (Means I'm One Day Closer To You)
TTITLE13=Alabama - The Closer You Get
TTITLE14=Ronnie Milsap - There's No Gettin' Over Me
TTITLE15=Johnny Lee - Lookin' For Love
TTITLE16=Kenny Rogers and Dolly Parton - Islands in the Stream
TTITLE17=Frizzell and West - You're the Reason God Made Oklahoma
TTITLE18=Jerry Reed - She Got the Goldmine (I Got the Shaft)
TTITLE19=Barbara Mandrell - I Was Country When Country Wasn't Cool
EXTD=
EXTT0=
EXTT1=
EXTT2=
EXTT3=
EXTT4=
EXTT5=
EXTT6=
EXTT7=
EXTT8=
EXTT9=
EXTT10=
EXTT11=
EXTT12=
EXTT13=
EXTT14=
EXTT15=
EXTT16=
EXTT17=
EXTT18=
EXTT19=
PLAYORDER=
